<svg xmlns="http://www.w3.org/2000/svg" xmlns:xlink="http://www.w3.org/1999/xlink" width="113" zoomAndPan="magnify" viewBox="0 0 84.75 84.749997" height="113" preserveAspectRatio="xMidYMid meet" version="1.0"><defs><clipPath id="c4b42e455b"><path d="M 47 62 L 56 62 L 56 84.5 L 47 84.5 Z M 47 62 " clip-rule="nonzero"/></clipPath><clipPath id="7061855136"><path d="M 29 62 L 39 62 L 39 84.5 L 29 84.5 Z M 29 62 " clip-rule="nonzero"/></clipPath></defs><path fill="#55722b" d="M 19.902344 53.066406 C 19.8125 53.316406 19.730469 53.570312 19.65625 53.828125 C 19.53125 54.269531 19.433594 54.71875 19.355469 55.171875 C 19.234375 55.878906 19.148438 56.59375 19.128906 57.308594 C 19.105469 58.117188 19.179688 58.917969 19.308594 59.714844 C 19.367188 60.078125 19.445312 60.4375 19.542969 60.792969 C 19.683594 61.277344 19.867188 61.742188 20.066406 62.207031 C 20.277344 62.707031 20.539062 63.183594 20.828125 63.640625 C 20.957031 63.84375 21.09375 64.042969 21.238281 64.234375 C 21.484375 64.558594 21.734375 64.882812 22.011719 65.183594 C 22.238281 65.429688 22.480469 65.664062 22.738281 65.882812 C 23.109375 66.203125 23.503906 66.503906 23.917969 66.773438 C 24.269531 67.003906 24.640625 67.210938 25.027344 67.386719 C 25.476562 67.589844 25.941406 67.78125 26.414062 67.929688 C 27.097656 68.140625 27.800781 68.253906 28.511719 68.328125 C 28.613281 68.335938 28.714844 68.34375 28.816406 68.351562 C 29.015625 68.359375 29.199219 68.316406 29.371094 68.226562 C 29.550781 68.167969 29.703125 68.070312 29.835938 67.929688 C 29.976562 67.800781 30.074219 67.644531 30.132812 67.464844 C 30.222656 67.292969 30.265625 67.109375 30.257812 66.910156 C 30.238281 66.78125 30.222656 66.65625 30.207031 66.527344 C 30.136719 66.28125 30.015625 66.070312 29.835938 65.890625 C 29.738281 65.816406 29.640625 65.742188 29.542969 65.664062 C 29.320312 65.535156 29.078125 65.46875 28.816406 65.46875 C 28.617188 65.457031 28.414062 65.433594 28.214844 65.410156 C 28.34375 65.425781 28.46875 65.441406 28.597656 65.460938 C 27.832031 65.355469 27.078125 65.152344 26.367188 64.851562 C 26.480469 64.898438 26.597656 64.949219 26.710938 64.996094 C 26.035156 64.710938 25.394531 64.335938 24.8125 63.886719 C 24.910156 63.964844 25.007812 64.039062 25.105469 64.113281 C 24.53125 63.667969 24.011719 63.148438 23.566406 62.570312 C 23.640625 62.667969 23.714844 62.765625 23.789062 62.863281 C 23.457031 62.429688 23.164062 61.96875 22.910156 61.492188 C 22.773438 61.242188 22.652344 60.988281 22.542969 60.730469 C 22.59375 60.84375 22.640625 60.957031 22.6875 61.074219 C 22.371094 60.3125 22.160156 59.511719 22.046875 58.691406 C 22.0625 58.820312 22.082031 58.949219 22.097656 59.074219 C 21.988281 58.265625 21.976562 57.445312 22.046875 56.628906 C 22.0625 56.425781 22.085938 56.21875 22.113281 56.015625 C 22.097656 56.140625 22.078125 56.269531 22.0625 56.398438 C 22.167969 55.628906 22.335938 54.867188 22.578125 54.132812 C 22.609375 54.03125 22.644531 53.929688 22.679688 53.832031 C 22.738281 53.640625 22.746094 53.449219 22.703125 53.257812 C 22.695312 53.066406 22.640625 52.886719 22.535156 52.722656 C 22.441406 52.554688 22.320312 52.417969 22.164062 52.316406 C 22.023438 52.1875 21.859375 52.101562 21.671875 52.058594 C 21.546875 52.042969 21.417969 52.023438 21.289062 52.007812 C 21.03125 52.007812 20.789062 52.074219 20.5625 52.203125 C 20.464844 52.277344 20.367188 52.355469 20.269531 52.429688 C 20.09375 52.609375 19.96875 52.820312 19.902344 53.066406 Z M 19.902344 53.066406 " fill-opacity="1" fill-rule="nonzero"/><path fill="#55722b" d="M 61.921875 53.792969 C 62.128906 54.367188 62.289062 54.960938 62.40625 55.5625 C 62.457031 55.828125 62.503906 56.09375 62.539062 56.359375 C 62.523438 56.230469 62.503906 56.101562 62.488281 55.976562 C 62.589844 56.746094 62.625 57.527344 62.574219 58.304688 C 62.558594 58.550781 62.535156 58.792969 62.503906 59.035156 C 62.519531 58.910156 62.535156 58.78125 62.554688 58.652344 C 62.441406 59.472656 62.230469 60.273438 61.910156 61.035156 C 61.960938 60.917969 62.007812 60.804688 62.058594 60.691406 C 61.804688 61.285156 61.488281 61.855469 61.125 62.390625 C 61.023438 62.535156 60.917969 62.679688 60.808594 62.824219 C 60.886719 62.726562 60.960938 62.628906 61.035156 62.53125 C 60.589844 63.109375 60.070312 63.628906 59.496094 64.074219 C 59.59375 64 59.691406 63.925781 59.789062 63.847656 C 59.207031 64.296875 58.566406 64.671875 57.890625 64.957031 C 58.003906 64.910156 58.121094 64.859375 58.234375 64.8125 C 57.523438 65.113281 56.769531 65.316406 56.003906 65.421875 C 56.132812 65.402344 56.257812 65.386719 56.386719 65.371094 C 56.1875 65.394531 55.984375 65.417969 55.785156 65.429688 C 55.585938 65.421875 55.402344 65.464844 55.230469 65.554688 C 55.050781 65.613281 54.898438 65.710938 54.765625 65.851562 C 54.625 65.984375 54.527344 66.136719 54.46875 66.316406 C 54.378906 66.488281 54.335938 66.671875 54.34375 66.871094 C 54.363281 67 54.378906 67.125 54.394531 67.253906 C 54.464844 67.5 54.585938 67.710938 54.765625 67.890625 C 54.863281 67.964844 54.960938 68.042969 55.058594 68.117188 C 55.28125 68.246094 55.523438 68.3125 55.785156 68.3125 C 56.136719 68.289062 56.484375 68.242188 56.832031 68.191406 C 57.125 68.152344 57.417969 68.09375 57.703125 68.023438 C 58.046875 67.9375 58.386719 67.832031 58.71875 67.707031 C 59.207031 67.519531 59.691406 67.308594 60.148438 67.058594 C 60.503906 66.859375 60.84375 66.640625 61.167969 66.394531 C 61.546875 66.109375 61.917969 65.816406 62.257812 65.484375 C 62.753906 65 63.195312 64.449219 63.589844 63.878906 C 63.847656 63.507812 64.078125 63.113281 64.28125 62.710938 C 64.515625 62.253906 64.71875 61.773438 64.886719 61.289062 C 65.011719 60.933594 65.113281 60.570312 65.195312 60.199219 C 65.296875 59.730469 65.363281 59.25 65.414062 58.773438 C 65.453125 58.433594 65.472656 58.089844 65.476562 57.75 C 65.488281 57.003906 65.410156 56.269531 65.308594 55.53125 C 65.242188 55.039062 65.144531 54.550781 65.019531 54.070312 C 64.941406 53.761719 64.847656 53.453125 64.746094 53.152344 C 64.730469 53.109375 64.714844 53.066406 64.699219 53.027344 C 64.65625 52.839844 64.570312 52.675781 64.441406 52.535156 C 64.339844 52.378906 64.207031 52.253906 64.039062 52.164062 C 63.875 52.058594 63.695312 52 63.503906 51.992188 C 63.3125 51.949219 63.121094 51.957031 62.929688 52.019531 C 62.8125 52.066406 62.699219 52.117188 62.585938 52.164062 C 62.367188 52.292969 62.195312 52.464844 62.066406 52.679688 C 62.019531 52.796875 61.972656 52.910156 61.921875 53.027344 C 61.855469 53.28125 61.855469 53.535156 61.921875 53.792969 Z M 61.921875 53.792969 " fill-opacity="1" fill-rule="nonzero"/><path fill="#c1bf68" d="M 43.480469 31.195312 L 36.277344 27.382812 L 47.832031 5.527344 C 48.175781 6.292969 48.777344 7.375 49.8125 8.347656 C 51.183594 9.636719 52.652344 10.113281 53.507812 10.304688 C 50.164062 17.269531 46.824219 24.230469 43.480469 31.195312 Z M 43.480469 31.195312 " fill-opacity="1" fill-rule="nonzero"/><path fill="#5a7c2e" d="M 45.539062 25.78125 C 42.6875 25.847656 39.839844 25.914062 36.988281 25.980469 C 37.3125 24.25 38.046875 19.121094 35.335938 13.617188 C 33.203125 9.28125 30.003906 6.886719 28.464844 5.882812 C 28.828125 5.894531 32.429688 5.953125 34.410156 3.171875 C 35.269531 1.96875 35.476562 0.714844 35.535156 0 C 37.488281 2.105469 39.902344 5.183594 41.878906 9.320312 C 45.085938 16.035156 45.550781 22.203125 45.539062 25.78125 Z M 45.539062 25.78125 " fill-opacity="1" fill-rule="nonzero"/><g clip-path="url(#c4b42e455b)"><path fill="#5a7c2e" d="M 47.433594 64.027344 C 47.441406 66.496094 47.445312 68.96875 47.453125 71.441406 C 47.460938 73.898438 47.464844 76.359375 47.472656 78.816406 C 47.476562 80.199219 47.480469 81.582031 47.484375 82.964844 C 47.476562 83.160156 47.515625 83.347656 47.609375 83.519531 C 47.664062 83.699219 47.765625 83.851562 47.90625 83.984375 C 48.191406 84.242188 48.53125 84.398438 48.925781 84.40625 C 50.269531 84.425781 51.617188 84.449219 52.964844 84.472656 C 53.351562 84.480469 53.734375 84.484375 54.121094 84.492188 C 54.488281 84.5 54.882812 84.328125 55.140625 84.070312 C 55.28125 83.941406 55.378906 83.785156 55.4375 83.605469 C 55.527344 83.433594 55.570312 83.25 55.5625 83.050781 C 55.546875 82.679688 55.421875 82.292969 55.140625 82.03125 C 54.855469 81.769531 54.515625 81.617188 54.121094 81.609375 C 52.773438 81.585938 51.429688 81.5625 50.082031 81.542969 C 49.695312 81.535156 49.308594 81.527344 48.925781 81.523438 C 49.40625 82.003906 49.886719 82.484375 50.363281 82.964844 C 50.359375 80.492188 50.351562 78.019531 50.34375 75.546875 C 50.339844 73.089844 50.332031 70.628906 50.324219 68.171875 C 50.324219 66.789062 50.320312 65.40625 50.316406 64.027344 C 50.3125 63.65625 50.15625 63.269531 49.894531 63.007812 C 49.761719 62.867188 49.609375 62.765625 49.429688 62.707031 C 49.257812 62.617188 49.074219 62.578125 48.875 62.582031 C 48.5 62.601562 48.117188 62.722656 47.855469 63.007812 C 47.597656 63.289062 47.433594 63.636719 47.433594 64.027344 Z M 47.433594 64.027344 " fill-opacity="1" fill-rule="nonzero"/></g><g clip-path="url(#7061855136)"><path fill="#5a7c2e" d="M 35.152344 64.027344 C 35.144531 66.496094 35.136719 68.96875 35.132812 71.441406 C 35.125 73.898438 35.117188 76.359375 35.113281 78.816406 C 35.109375 80.199219 35.105469 81.582031 35.101562 82.964844 C 35.582031 82.484375 36.0625 82.003906 36.542969 81.523438 C 35.195312 81.542969 33.847656 81.566406 32.5 81.589844 C 32.117188 81.597656 31.730469 81.601562 31.34375 81.609375 C 30.972656 81.617188 30.589844 81.765625 30.324219 82.03125 C 30.1875 82.164062 30.085938 82.316406 30.027344 82.496094 C 29.9375 82.667969 29.898438 82.851562 29.902344 83.050781 C 29.921875 83.425781 30.042969 83.8125 30.324219 84.070312 C 30.605469 84.328125 30.957031 84.5 31.34375 84.492188 C 32.691406 84.46875 34.039062 84.449219 35.386719 84.425781 C 35.769531 84.417969 36.15625 84.410156 36.542969 84.40625 C 36.738281 84.414062 36.925781 84.371094 37.097656 84.28125 C 37.277344 84.222656 37.429688 84.121094 37.5625 83.984375 C 37.820312 83.699219 37.980469 83.355469 37.984375 82.964844 C 37.988281 80.492188 37.996094 78.019531 38.003906 75.546875 C 38.007812 73.089844 38.015625 70.628906 38.019531 68.171875 C 38.023438 66.789062 38.027344 65.40625 38.03125 64.027344 C 38.035156 63.65625 37.871094 63.265625 37.609375 63.007812 C 37.480469 62.867188 37.324219 62.765625 37.148438 62.707031 C 36.976562 62.617188 36.789062 62.578125 36.589844 62.582031 C 36.21875 62.601562 35.832031 62.722656 35.574219 63.007812 C 35.3125 63.289062 35.152344 63.632812 35.152344 64.027344 Z M 35.152344 64.027344 " fill-opacity="1" fill-rule="nonzero"/></g><path fill="#6c9342" d="M 18.949219 54.175781 L 20.738281 55.867188 C 24.152344 53.457031 27.753906 50.734375 31.457031 47.675781 C 27.851562 44.074219 24.691406 40.554688 21.933594 37.230469 L 18.949219 40.390625 C 15.382812 44.175781 15.382812 50.351562 18.949219 54.175781 Z M 18.949219 54.175781 " fill-opacity="1" fill-rule="nonzero"/><path fill="#d3d371" d="M 42.535156 57.707031 C 46.292969 60.773438 49.933594 63.445312 53.351562 65.773438 L 64.476562 55.378906 C 61.109375 53.011719 57.5625 50.347656 53.914062 47.351562 C 52.585938 48.691406 51.195312 50.042969 49.738281 51.402344 C 47.3125 53.664062 44.902344 55.761719 42.535156 57.707031 Z M 42.535156 57.707031 " fill-opacity="1" fill-rule="nonzero"/><path fill="#d3d371" d="M 31.738281 66.285156 C 35.269531 63.878906 39.035156 61.097656 42.921875 57.902344 C 40.398438 55.84375 37.824219 53.613281 35.230469 51.195312 C 33.933594 49.984375 32.691406 48.78125 31.492188 47.585938 C 27.761719 50.671875 24.128906 53.410156 20.6875 55.835938 Z M 31.738281 66.285156 " fill-opacity="1" fill-rule="nonzero"/><path fill="#6c9342" d="M 42.796875 57.824219 C 38.925781 61.007812 35.167969 63.78125 31.640625 66.191406 L 35.835938 70.15625 C 39.402344 73.949219 45.179688 73.949219 48.742188 70.164062 L 53.441406 65.773438 C 50.070312 63.46875 46.488281 60.832031 42.796875 57.824219 Z M 42.796875 57.824219 " fill-opacity="1" fill-rule="nonzero"/><path fill="#6c9342" d="M 42.6875 37.277344 C 41.195312 38.757812 39.632812 40.257812 38 41.761719 C 35.757812 43.828125 33.53125 45.769531 31.335938 47.59375 C 32.789062 49.042969 34.3125 50.503906 35.914062 51.972656 C 38.226562 54.097656 40.523438 56.070312 42.773438 57.902344 C 44.695312 56.3125 46.640625 54.621094 48.601562 52.824219 C 50.550781 51.039062 52.382812 49.261719 54.105469 47.511719 C 51.613281 45.46875 49.074219 43.273438 46.515625 40.914062 C 45.191406 39.695312 43.917969 38.480469 42.6875 37.277344 Z M 42.6875 37.277344 " fill-opacity="1" fill-rule="nonzero"/><path fill="#6c9342" d="M 65.632812 40.640625 L 62.75 37.558594 C 60.128906 40.710938 57.144531 44.039062 53.765625 47.441406 C 57.425781 50.449219 60.984375 53.121094 64.355469 55.488281 L 65.632812 54.300781 C 69.195312 50.542969 69.195312 44.433594 65.632812 40.640625 Z M 65.632812 40.640625 " fill-opacity="1" fill-rule="nonzero"/><path fill="#d3d371" d="M 32.3125 26.1875 L 21.867188 37.234375 C 24.628906 40.570312 27.808594 44.117188 31.460938 47.765625 C 33.609375 45.988281 35.792969 44.101562 37.996094 42.089844 C 39.691406 40.542969 41.304688 39.003906 42.847656 37.484375 C 38.875 33.589844 35.375 29.785156 32.3125 26.1875 Z M 32.3125 26.1875 " fill-opacity="1" fill-rule="nonzero"/><path fill="#d3d371" d="M 62.960938 37.851562 L 52.566406 26.742188 C 49.628906 30.179688 46.300781 33.804688 42.535156 37.519531 C 43.957031 38.910156 45.4375 40.3125 46.980469 41.722656 C 49.332031 43.871094 51.664062 45.878906 53.953125 47.761719 C 57.359375 44.335938 60.347656 40.996094 62.960938 37.851562 Z M 62.960938 37.851562 " fill-opacity="1" fill-rule="nonzero"/><path fill="#6c9342" d="M 42.597656 37.636719 C 46.382812 33.90625 49.71875 30.273438 52.652344 26.835938 L 48.742188 22.65625 C 45.179688 18.832031 39.402344 18.769531 35.835938 22.523438 L 32.140625 26.433594 C 35.179688 29.996094 38.648438 33.765625 42.597656 37.636719 Z M 42.597656 37.636719 " fill-opacity="1" fill-rule="nonzero"/><path fill="#ffffff" d="M 38.144531 47.1875 C 38.144531 47.589844 38.105469 47.984375 38.027344 48.375 C 37.949219 48.769531 37.835938 49.148438 37.683594 49.519531 C 37.53125 49.886719 37.34375 50.238281 37.121094 50.570312 C 36.898438 50.902344 36.644531 51.210938 36.363281 51.492188 C 36.082031 51.773438 35.773438 52.027344 35.441406 52.25 C 35.109375 52.472656 34.761719 52.660156 34.390625 52.8125 C 34.023438 52.964844 33.640625 53.078125 33.25 53.15625 C 32.859375 53.234375 32.464844 53.273438 32.0625 53.273438 C 31.664062 53.273438 31.269531 53.234375 30.878906 53.15625 C 30.484375 53.078125 30.105469 52.964844 29.734375 52.8125 C 29.367188 52.660156 29.015625 52.472656 28.683594 52.25 C 28.351562 52.027344 28.046875 51.773438 27.761719 51.492188 C 27.480469 51.210938 27.230469 50.902344 27.007812 50.570312 C 26.785156 50.238281 26.597656 49.886719 26.445312 49.519531 C 26.292969 49.148438 26.175781 48.769531 26.097656 48.375 C 26.019531 47.984375 25.980469 47.589844 25.980469 47.1875 C 25.980469 46.789062 26.019531 46.394531 26.097656 46.003906 C 26.175781 45.609375 26.292969 45.230469 26.445312 44.859375 C 26.597656 44.492188 26.785156 44.140625 27.007812 43.808594 C 27.230469 43.476562 27.480469 43.167969 27.761719 42.886719 C 28.046875 42.605469 28.351562 42.351562 28.683594 42.128906 C 29.015625 41.90625 29.367188 41.71875 29.734375 41.566406 C 30.105469 41.414062 30.484375 41.300781 30.878906 41.222656 C 31.269531 41.144531 31.664062 41.105469 32.0625 41.105469 C 32.464844 41.105469 32.859375 41.144531 33.25 41.222656 C 33.640625 41.300781 34.023438 41.414062 34.390625 41.566406 C 34.761719 41.71875 35.109375 41.90625 35.441406 42.128906 C 35.773438 42.351562 36.082031 42.605469 36.363281 42.886719 C 36.644531 43.167969 36.898438 43.476562 37.121094 43.808594 C 37.34375 44.140625 37.53125 44.492188 37.683594 44.859375 C 37.835938 45.230469 37.949219 45.609375 38.027344 46.003906 C 38.105469 46.394531 38.144531 46.789062 38.144531 47.1875 Z M 38.144531 47.1875 " fill-opacity="1" fill-rule="nonzero"/><path fill="#231f20" d="M 37.785156 47.1875 C 37.785156 47.515625 37.753906 47.84375 37.6875 48.164062 C 37.625 48.484375 37.53125 48.796875 37.402344 49.101562 C 37.277344 49.402344 37.125 49.691406 36.941406 49.964844 C 36.761719 50.234375 36.554688 50.488281 36.324219 50.71875 C 36.089844 50.953125 35.839844 51.160156 35.566406 51.339844 C 35.292969 51.523438 35.007812 51.675781 34.703125 51.800781 C 34.402344 51.929688 34.089844 52.023438 33.765625 52.085938 C 33.445312 52.148438 33.121094 52.183594 32.792969 52.183594 C 32.464844 52.183594 32.140625 52.148438 31.820312 52.085938 C 31.5 52.023438 31.1875 51.929688 30.882812 51.800781 C 30.582031 51.675781 30.292969 51.523438 30.019531 51.339844 C 29.75 51.160156 29.496094 50.953125 29.265625 50.71875 C 29.035156 50.488281 28.828125 50.234375 28.644531 49.964844 C 28.460938 49.691406 28.308594 49.402344 28.183594 49.101562 C 28.058594 48.796875 27.964844 48.484375 27.898438 48.164062 C 27.835938 47.84375 27.804688 47.515625 27.804688 47.1875 C 27.804688 46.863281 27.835938 46.535156 27.898438 46.214844 C 27.964844 45.894531 28.058594 45.582031 28.183594 45.277344 C 28.308594 44.976562 28.460938 44.6875 28.644531 44.414062 C 28.828125 44.144531 29.035156 43.890625 29.265625 43.660156 C 29.496094 43.425781 29.75 43.21875 30.019531 43.039062 C 30.292969 42.855469 30.582031 42.703125 30.882812 42.578125 C 31.1875 42.449219 31.5 42.355469 31.820312 42.292969 C 32.140625 42.226562 32.464844 42.195312 32.792969 42.195312 C 33.121094 42.195312 33.445312 42.226562 33.765625 42.292969 C 34.089844 42.355469 34.402344 42.449219 34.703125 42.578125 C 35.007812 42.703125 35.292969 42.855469 35.566406 43.039062 C 35.839844 43.21875 36.089844 43.425781 36.324219 43.660156 C 36.554688 43.890625 36.761719 44.144531 36.941406 44.414062 C 37.125 44.6875 37.277344 44.976562 37.402344 45.277344 C 37.53125 45.582031 37.625 45.894531 37.6875 46.214844 C 37.753906 46.535156 37.785156 46.863281 37.785156 47.1875 Z M 37.785156 47.1875 " fill-opacity="1" fill-rule="nonzero"/><path fill="#ffffff" d="M 36.605469 45.078125 C 36.605469 45.230469 36.574219 45.375 36.515625 45.515625 C 36.457031 45.660156 36.375 45.78125 36.269531 45.890625 C 36.160156 46 36.035156 46.082031 35.894531 46.140625 C 35.753906 46.199219 35.609375 46.226562 35.457031 46.226562 C 35.300781 46.226562 35.15625 46.199219 35.015625 46.140625 C 34.875 46.082031 34.75 46 34.640625 45.890625 C 34.535156 45.78125 34.453125 45.660156 34.394531 45.515625 C 34.335938 45.375 34.304688 45.230469 34.304688 45.078125 C 34.304688 44.925781 34.335938 44.777344 34.394531 44.636719 C 34.453125 44.496094 34.535156 44.371094 34.640625 44.265625 C 34.75 44.15625 34.875 44.074219 35.015625 44.015625 C 35.15625 43.957031 35.300781 43.925781 35.457031 43.925781 C 35.609375 43.925781 35.753906 43.957031 35.894531 44.015625 C 36.035156 44.074219 36.160156 44.15625 36.269531 44.265625 C 36.375 44.371094 36.457031 44.496094 36.515625 44.636719 C 36.574219 44.777344 36.605469 44.925781 36.605469 45.078125 Z M 36.605469 45.078125 " fill-opacity="1" fill-rule="nonzero"/><path fill="#ffffff" d="M 33.972656 47.882812 C 33.972656 48.070312 33.90625 48.234375 33.769531 48.371094 C 33.636719 48.503906 33.472656 48.574219 33.28125 48.574219 C 33.089844 48.574219 32.929688 48.503906 32.792969 48.371094 C 32.660156 48.234375 32.589844 48.070312 32.589844 47.882812 C 32.589844 47.691406 32.660156 47.527344 32.792969 47.390625 C 32.929688 47.257812 33.089844 47.191406 33.28125 47.191406 C 33.472656 47.191406 33.636719 47.257812 33.769531 47.390625 C 33.90625 47.527344 33.972656 47.691406 33.972656 47.882812 Z M 33.972656 47.882812 " fill-opacity="1" fill-rule="nonzero"/><path fill="#ffffff" d="M 58.34375 47.1875 C 58.34375 47.589844 58.304688 47.984375 58.226562 48.375 C 58.148438 48.769531 58.03125 49.148438 57.878906 49.519531 C 57.726562 49.886719 57.539062 50.238281 57.316406 50.570312 C 57.09375 50.902344 56.84375 51.210938 56.5625 51.492188 C 56.277344 51.773438 55.972656 52.027344 55.640625 52.25 C 55.308594 52.472656 54.957031 52.660156 54.589844 52.8125 C 54.21875 52.964844 53.839844 53.078125 53.445312 53.15625 C 53.054688 53.234375 52.660156 53.273438 52.261719 53.273438 C 51.863281 53.273438 51.464844 53.234375 51.074219 53.15625 C 50.683594 53.078125 50.300781 52.964844 49.933594 52.8125 C 49.566406 52.660156 49.214844 52.472656 48.882812 52.25 C 48.550781 52.027344 48.242188 51.773438 47.960938 51.492188 C 47.679688 51.210938 47.425781 50.902344 47.203125 50.570312 C 46.980469 50.238281 46.796875 49.886719 46.640625 49.519531 C 46.488281 49.148438 46.375 48.769531 46.296875 48.375 C 46.21875 47.984375 46.179688 47.589844 46.179688 47.1875 C 46.179688 46.789062 46.21875 46.394531 46.296875 46.003906 C 46.375 45.609375 46.488281 45.230469 46.640625 44.859375 C 46.796875 44.492188 46.980469 44.140625 47.203125 43.808594 C 47.425781 43.476562 47.679688 43.167969 47.960938 42.886719 C 48.242188 42.605469 48.550781 42.351562 48.882812 42.128906 C 49.214844 41.90625 49.566406 41.71875 49.933594 41.566406 C 50.300781 41.414062 50.683594 41.300781 51.074219 41.222656 C 51.464844 41.144531 51.863281 41.105469 52.261719 41.105469 C 52.660156 41.105469 53.054688 41.144531 53.445312 41.222656 C 53.839844 41.300781 54.21875 41.414062 54.589844 41.566406 C 54.957031 41.71875 55.308594 41.90625 55.640625 42.128906 C 55.972656 42.351562 56.277344 42.605469 56.5625 42.886719 C 56.84375 43.167969 57.09375 43.476562 57.316406 43.808594 C 57.539062 44.140625 57.726562 44.492188 57.878906 44.859375 C 58.03125 45.230469 58.148438 45.609375 58.226562 46.003906 C 58.304688 46.394531 58.34375 46.789062 58.34375 47.1875 Z M 58.34375 47.1875 " fill-opacity="1" fill-rule="nonzero"/><path fill="#231f20" d="M 56.519531 47.1875 C 56.519531 47.515625 56.488281 47.84375 56.425781 48.164062 C 56.359375 48.484375 56.265625 48.796875 56.140625 49.101562 C 56.015625 49.402344 55.863281 49.691406 55.679688 49.964844 C 55.496094 50.234375 55.289062 50.488281 55.058594 50.71875 C 54.828125 50.953125 54.574219 51.160156 54.300781 51.339844 C 54.03125 51.523438 53.742188 51.675781 53.441406 51.800781 C 53.136719 51.929688 52.824219 52.023438 52.503906 52.085938 C 52.183594 52.148438 51.859375 52.183594 51.53125 52.183594 C 51.203125 52.183594 50.878906 52.148438 50.558594 52.085938 C 50.234375 52.023438 49.921875 51.929688 49.621094 51.800781 C 49.316406 51.675781 49.03125 51.523438 48.757812 51.339844 C 48.484375 51.160156 48.234375 50.953125 48 50.71875 C 47.769531 50.488281 47.5625 50.234375 47.382812 49.964844 C 47.199219 49.691406 47.046875 49.402344 46.921875 49.101562 C 46.792969 48.796875 46.699219 48.484375 46.636719 48.164062 C 46.570312 47.84375 46.539062 47.515625 46.539062 47.1875 C 46.539062 46.863281 46.570312 46.535156 46.636719 46.214844 C 46.699219 45.894531 46.792969 45.582031 46.921875 45.277344 C 47.046875 44.976562 47.199219 44.6875 47.382812 44.414062 C 47.5625 44.144531 47.769531 43.890625 48 43.660156 C 48.234375 43.425781 48.484375 43.21875 48.757812 43.039062 C 49.03125 42.855469 49.316406 42.703125 49.621094 42.578125 C 49.921875 42.449219 50.234375 42.355469 50.558594 42.292969 C 50.878906 42.226562 51.203125 42.195312 51.53125 42.195312 C 51.859375 42.195312 52.183594 42.226562 52.503906 42.292969 C 52.824219 42.355469 53.136719 42.449219 53.441406 42.578125 C 53.742188 42.703125 54.03125 42.855469 54.300781 43.039062 C 54.574219 43.21875 54.828125 43.425781 55.058594 43.660156 C 55.289062 43.890625 55.496094 44.144531 55.679688 44.414062 C 55.863281 44.6875 56.015625 44.976562 56.140625 45.277344 C 56.265625 45.582031 56.359375 45.894531 56.425781 46.214844 C 56.488281 46.535156 56.519531 46.863281 56.519531 47.1875 Z M 56.519531 47.1875 " fill-opacity="1" fill-rule="nonzero"/><path fill="#ffffff" d="M 50.019531 45.078125 C 50.019531 45.230469 49.988281 45.375 49.929688 45.515625 C 49.871094 45.660156 49.789062 45.78125 49.683594 45.890625 C 49.574219 46 49.449219 46.082031 49.308594 46.140625 C 49.167969 46.199219 49.023438 46.226562 48.871094 46.226562 C 48.714844 46.226562 48.570312 46.199219 48.429688 46.140625 C 48.289062 46.082031 48.164062 46 48.054688 45.890625 C 47.949219 45.78125 47.867188 45.660156 47.808594 45.515625 C 47.75 45.375 47.71875 45.230469 47.71875 45.078125 C 47.71875 44.925781 47.75 44.777344 47.808594 44.636719 C 47.867188 44.496094 47.949219 44.371094 48.054688 44.265625 C 48.164062 44.15625 48.289062 44.074219 48.429688 44.015625 C 48.570312 43.957031 48.714844 43.925781 48.871094 43.925781 C 49.023438 43.925781 49.167969 43.957031 49.308594 44.015625 C 49.449219 44.074219 49.574219 44.15625 49.683594 44.265625 C 49.789062 44.371094 49.871094 44.496094 49.929688 44.636719 C 49.988281 44.777344 50.019531 44.925781 50.019531 45.078125 Z M 50.019531 45.078125 " fill-opacity="1" fill-rule="nonzero"/><path fill="#ffffff" d="M 51.734375 47.882812 C 51.734375 48.070312 51.664062 48.234375 51.53125 48.371094 C 51.394531 48.503906 51.234375 48.574219 51.042969 48.574219 C 50.851562 48.574219 50.6875 48.503906 50.554688 48.371094 C 50.417969 48.234375 50.351562 48.070312 50.351562 47.882812 C 50.351562 47.691406 50.417969 47.527344 50.554688 47.390625 C 50.6875 47.257812 50.851562 47.191406 51.042969 47.191406 C 51.234375 47.191406 51.394531 47.257812 51.53125 47.390625 C 51.664062 47.527344 51.734375 47.691406 51.734375 47.882812 Z M 51.734375 47.882812 " fill-opacity="1" fill-rule="nonzero"/><path fill="#231f20" d="M 39.804688 53.316406 C 40.117188 53.714844 40.539062 54.058594 40.964844 54.332031 C 41.8125 54.882812 42.894531 55.125 43.871094 54.773438 C 44.640625 54.492188 45.273438 53.957031 45.78125 53.316406 C 45.886719 53.183594 45.964844 53.054688 45.964844 52.875 C 45.964844 52.722656 45.894531 52.542969 45.78125 52.4375 C 45.664062 52.328125 45.507812 52.246094 45.339844 52.253906 C 45.1875 52.261719 45 52.308594 44.902344 52.4375 C 44.675781 52.71875 44.429688 52.988281 44.148438 53.214844 C 44.109375 53.246094 44 53.3125 44.160156 53.207031 C 44.125 53.230469 44.09375 53.257812 44.058594 53.28125 C 44.003906 53.320312 43.945312 53.359375 43.886719 53.394531 C 43.765625 53.46875 43.640625 53.53125 43.511719 53.585938 C 43.5625 53.566406 43.613281 53.542969 43.660156 53.523438 C 43.460938 53.605469 43.253906 53.664062 43.035156 53.695312 C 43.09375 53.6875 43.148438 53.679688 43.203125 53.675781 C 42.992188 53.703125 42.777344 53.699219 42.566406 53.675781 C 42.621094 53.679688 42.675781 53.6875 42.730469 53.695312 C 42.484375 53.664062 42.242188 53.59375 42.011719 53.496094 C 42.0625 53.515625 42.109375 53.539062 42.160156 53.558594 C 41.980469 53.484375 41.804688 53.390625 41.640625 53.289062 C 41.5625 53.238281 41.488281 53.1875 41.414062 53.132812 C 41.378906 53.109375 41.34375 53.082031 41.308594 53.058594 C 41.261719 53.023438 41.421875 53.144531 41.402344 53.128906 C 41.390625 53.121094 41.382812 53.113281 41.375 53.105469 C 41.355469 53.09375 41.335938 53.078125 41.320312 53.0625 C 41.125 52.90625 40.941406 52.730469 40.773438 52.542969 C 40.742188 52.507812 40.710938 52.472656 40.683594 52.4375 C 40.589844 52.320312 40.382812 52.253906 40.242188 52.253906 C 40.089844 52.253906 39.910156 52.324219 39.804688 52.4375 C 39.695312 52.554688 39.613281 52.710938 39.621094 52.878906 C 39.628906 53.050781 39.695312 53.179688 39.804688 53.316406 Z M 39.804688 53.316406 " fill-opacity="1" fill-rule="nonzero"/><path fill="#f79285" d="M 33.007812 55.144531 C 33.007812 55.367188 32.910156 55.582031 32.710938 55.789062 C 32.511719 55.996094 32.230469 56.175781 31.863281 56.335938 C 31.496094 56.492188 31.074219 56.613281 30.59375 56.699219 C 30.113281 56.785156 29.617188 56.828125 29.097656 56.828125 C 28.578125 56.828125 28.078125 56.785156 27.601562 56.699219 C 27.121094 56.613281 26.699219 56.492188 26.332031 56.335938 C 25.964844 56.175781 25.683594 55.996094 25.484375 55.789062 C 25.285156 55.582031 25.1875 55.367188 25.1875 55.144531 C 25.1875 54.921875 25.285156 54.707031 25.484375 54.503906 C 25.683594 54.296875 25.964844 54.113281 26.332031 53.957031 C 26.699219 53.800781 27.121094 53.679688 27.601562 53.59375 C 28.078125 53.507812 28.578125 53.464844 29.097656 53.464844 C 29.617188 53.464844 30.113281 53.507812 30.59375 53.59375 C 31.074219 53.679688 31.496094 53.800781 31.863281 53.957031 C 32.230469 54.113281 32.511719 54.296875 32.710938 54.503906 C 32.910156 54.707031 33.007812 54.921875 33.007812 55.144531 Z M 33.007812 55.144531 " fill-opacity="1" fill-rule="nonzero"/><path fill="#f79285" d="M 60.8125 54.585938 C 60.8125 54.808594 60.714844 55.023438 60.515625 55.226562 C 60.316406 55.433594 60.035156 55.617188 59.667969 55.773438 C 59.300781 55.929688 58.878906 56.050781 58.398438 56.136719 C 57.921875 56.222656 57.421875 56.265625 56.902344 56.265625 C 56.382812 56.265625 55.886719 56.222656 55.40625 56.136719 C 54.925781 56.050781 54.503906 55.929688 54.136719 55.773438 C 53.769531 55.617188 53.488281 55.433594 53.289062 55.226562 C 53.089844 55.023438 52.992188 54.808594 52.992188 54.585938 C 52.992188 54.363281 53.089844 54.148438 53.289062 53.941406 C 53.488281 53.734375 53.769531 53.554688 54.136719 53.394531 C 54.503906 53.238281 54.925781 53.117188 55.40625 53.03125 C 55.886719 52.945312 56.382812 52.902344 56.902344 52.902344 C 57.421875 52.902344 57.921875 52.945312 58.398438 53.03125 C 58.878906 53.117188 59.300781 53.238281 59.667969 53.394531 C 60.035156 53.554688 60.316406 53.734375 60.515625 53.941406 C 60.714844 54.148438 60.8125 54.363281 60.8125 54.585938 Z M 60.8125 54.585938 " fill-opacity="1" fill-rule="nonzero"/><path fill="#55722b" d="M 26.984375 68.09375 C 27.714844 68.253906 28.464844 68.359375 29.214844 68.417969 C 30.003906 68.476562 30.800781 68.460938 31.589844 68.375 C 32.511719 68.269531 33.421875 68.105469 34.308594 67.828125 C 34.648438 67.71875 34.980469 67.601562 35.308594 67.464844 C 35.726562 67.292969 36.144531 67.113281 36.546875 66.910156 C 37.109375 66.625 37.652344 66.296875 38.167969 65.9375 C 38.722656 65.550781 39.257812 65.132812 39.761719 64.683594 C 40.117188 64.367188 40.457031 64.03125 40.78125 63.683594 C 41.03125 63.410156 41.273438 63.132812 41.503906 62.84375 C 41.664062 62.640625 41.820312 62.441406 41.972656 62.234375 C 42.003906 62.191406 42.039062 62.148438 42.070312 62.101562 C 42.074219 62.097656 42.214844 61.761719 42.21875 61.753906 C 42.238281 61.679688 42.265625 61.433594 42.269531 61.359375 C 42.269531 61.332031 42.269531 61.304688 42.269531 61.277344 C 42.273438 61.21875 42.273438 61.160156 42.277344 61.101562 C 42.277344 60.984375 42.28125 60.867188 42.285156 60.75 C 42.308594 59.824219 42.332031 58.898438 42.355469 57.972656 C 42.359375 57.746094 42.363281 57.523438 42.371094 57.296875 C 42.378906 57.097656 42.335938 56.914062 42.246094 56.742188 C 42.1875 56.5625 42.089844 56.410156 41.949219 56.277344 C 41.816406 56.136719 41.664062 56.039062 41.484375 55.980469 C 41.3125 55.890625 41.128906 55.847656 40.929688 55.855469 C 40.800781 55.871094 40.675781 55.890625 40.546875 55.90625 C 40.300781 55.976562 40.089844 56.097656 39.910156 56.277344 C 39.835938 56.375 39.761719 56.472656 39.6875 56.570312 C 39.554688 56.792969 39.488281 57.039062 39.488281 57.296875 C 39.460938 58.355469 39.4375 59.410156 39.410156 60.46875 C 39.402344 60.769531 39.394531 61.070312 39.386719 61.371094 C 39.453125 61.128906 39.519531 60.886719 39.585938 60.644531 C 39.511719 60.742188 39.4375 60.839844 39.363281 60.9375 C 39.4375 60.839844 39.511719 60.746094 39.589844 60.648438 C 39.351562 60.953125 39.105469 61.246094 38.847656 61.53125 C 38.496094 61.914062 38.128906 62.28125 37.738281 62.628906 C 37.488281 62.855469 37.226562 63.070312 36.957031 63.28125 C 37.054688 63.203125 37.152344 63.128906 37.25 63.054688 C 36.554688 63.589844 35.808594 64.0625 35.023438 64.453125 C 34.785156 64.574219 34.539062 64.6875 34.289062 64.792969 C 34.40625 64.742188 34.519531 64.695312 34.632812 64.644531 C 33.886719 64.960938 33.109375 65.203125 32.316406 65.367188 C 32.035156 65.421875 31.753906 65.472656 31.472656 65.507812 C 31.601562 65.492188 31.730469 65.476562 31.855469 65.457031 C 30.949219 65.578125 30.03125 65.601562 29.117188 65.527344 C 28.898438 65.507812 28.675781 65.484375 28.457031 65.453125 C 28.585938 65.472656 28.710938 65.488281 28.839844 65.503906 C 28.472656 65.457031 28.109375 65.390625 27.75 65.3125 C 27.558594 65.253906 27.367188 65.242188 27.175781 65.285156 C 26.984375 65.296875 26.804688 65.351562 26.640625 65.457031 C 26.472656 65.546875 26.335938 65.671875 26.234375 65.828125 C 26.109375 65.96875 26.023438 66.132812 25.976562 66.320312 C 25.960938 66.445312 25.941406 66.574219 25.925781 66.703125 C 25.925781 66.960938 25.992188 67.207031 26.121094 67.429688 C 26.199219 67.527344 26.273438 67.625 26.347656 67.722656 C 26.527344 67.898438 26.738281 68.023438 26.984375 68.09375 Z M 26.984375 68.09375 " fill-opacity="1" fill-rule="nonzero"/><path fill="#55722b" d="M 56.851562 65.273438 C 56.496094 65.351562 56.132812 65.414062 55.773438 65.464844 C 55.898438 65.449219 56.027344 65.429688 56.15625 65.414062 C 55.304688 65.527344 54.441406 65.558594 53.582031 65.503906 C 53.300781 65.484375 53.019531 65.453125 52.738281 65.417969 C 52.867188 65.433594 52.992188 65.453125 53.121094 65.46875 C 52.257812 65.351562 51.40625 65.144531 50.585938 64.847656 C 50.378906 64.773438 50.171875 64.691406 49.964844 64.605469 C 50.082031 64.652344 50.195312 64.703125 50.308594 64.75 C 49.46875 64.394531 48.667969 63.949219 47.917969 63.429688 C 47.722656 63.292969 47.53125 63.152344 47.34375 63.007812 C 47.441406 63.082031 47.539062 63.160156 47.636719 63.234375 C 47.179688 62.878906 46.742188 62.496094 46.328125 62.089844 C 45.996094 61.761719 45.679688 61.421875 45.382812 61.066406 C 45.253906 60.914062 45.132812 60.761719 45.011719 60.605469 C 45.085938 60.703125 45.160156 60.800781 45.234375 60.898438 C 45.160156 60.800781 45.089844 60.703125 45.015625 60.605469 C 45.082031 60.847656 45.148438 61.089844 45.214844 61.332031 C 45.234375 60.308594 45.25 59.285156 45.269531 58.261719 C 45.277344 57.972656 45.28125 57.683594 45.285156 57.390625 C 45.292969 57.191406 45.253906 57.007812 45.164062 56.835938 C 45.105469 56.65625 45.003906 56.503906 44.863281 56.371094 C 44.734375 56.230469 44.578125 56.132812 44.402344 56.074219 C 44.230469 55.984375 44.042969 55.941406 43.847656 55.949219 C 43.71875 55.96875 43.589844 55.984375 43.464844 56 C 43.21875 56.070312 43.007812 56.195312 42.828125 56.371094 C 42.753906 56.46875 42.675781 56.566406 42.601562 56.664062 C 42.472656 56.890625 42.40625 57.132812 42.40625 57.390625 C 42.386719 58.3125 42.371094 59.234375 42.355469 60.152344 C 42.351562 60.386719 42.34375 60.617188 42.339844 60.851562 C 42.339844 60.964844 42.335938 61.082031 42.335938 61.199219 C 42.335938 61.226562 42.332031 61.253906 42.332031 61.28125 C 42.332031 61.292969 42.332031 61.304688 42.332031 61.320312 C 42.332031 61.386719 42.367188 61.648438 42.382812 61.714844 C 42.386719 61.722656 42.527344 62.058594 42.53125 62.0625 C 42.53125 62.066406 42.535156 62.066406 42.535156 62.070312 C 42.539062 62.074219 42.542969 62.082031 42.546875 62.085938 C 42.691406 62.28125 42.839844 62.472656 42.988281 62.664062 C 43.195312 62.933594 43.414062 63.195312 43.644531 63.449219 C 43.945312 63.789062 44.265625 64.113281 44.597656 64.421875 C 45.078125 64.871094 45.59375 65.28125 46.121094 65.671875 C 46.613281 66.039062 47.128906 66.371094 47.664062 66.664062 C 48.355469 67.042969 49.085938 67.363281 49.832031 67.632812 C 50.546875 67.890625 51.285156 68.078125 52.035156 68.199219 C 52.96875 68.351562 53.914062 68.4375 54.863281 68.40625 C 55.652344 68.378906 56.445312 68.28125 57.222656 68.132812 C 57.355469 68.109375 57.484375 68.082031 57.617188 68.054688 C 57.804688 68.007812 57.96875 67.921875 58.105469 67.792969 C 58.265625 67.691406 58.386719 67.558594 58.476562 67.390625 C 58.582031 67.226562 58.640625 67.046875 58.648438 66.855469 C 58.691406 66.664062 58.683594 66.472656 58.625 66.28125 C 58.574219 66.164062 58.527344 66.050781 58.476562 65.933594 C 58.351562 65.71875 58.175781 65.546875 57.960938 65.417969 C 57.847656 65.371094 57.730469 65.320312 57.617188 65.273438 C 57.363281 65.203125 57.105469 65.203125 56.851562 65.273438 Z M 56.851562 65.273438 " fill-opacity="1" fill-rule="nonzero"/></svg>